<svg width="1149" height="1362" viewBox="0 0 1149 1362" fill="none" xmlns="http://www.w3.org/2000/svg">
<path d="M543.098 18.6667C526.298 28.9333 511.498 37.7333 510.432 38.2667C509.365 38.8 495.498 46.9333 479.765 56.4C464.032 66 443.365 78.2667 433.765 84C424.298 89.6 411.098 97.6 404.432 101.6C397.898 105.6 387.898 111.467 382.432 114.667C376.965 117.867 369.498 122.267 365.765 124.667C359.765 128.533 248.965 194.8 243.365 198C240.698 199.467 122.698 270.267 77.0983 297.733C61.365 307.2 44.965 317.067 40.6983 319.467C36.2983 322 31.0983 325.2 29.0983 326.667C27.0983 328.133 25.0983 329.333 24.6983 329.333C24.2983 329.333 18.6983 332.533 12.165 336.533L0.431681 343.733L0.0316806 680.8C-0.101653 921.2 0.165014 1018.27 1.23168 1019.47C2.43168 1021.07 15.6317 1029.2 19.0983 1030.53C19.8983 1030.8 26.4317 1034.8 33.765 1039.33C41.0983 1043.87 57.765 1053.73 70.8317 1061.47C83.8983 1069.07 99.0983 1078.13 104.565 1081.6C110.032 1085.2 114.832 1088 115.232 1088C115.632 1088 125.898 1094 137.898 1101.33C150.032 1108.67 160.298 1114.67 160.565 1114.67C160.965 1114.67 164.565 1116.8 168.565 1119.33C176.032 1124.13 194.565 1135.2 264.432 1176.67C286.432 1189.6 309.898 1203.6 316.432 1207.6C323.098 1211.6 338.698 1220.93 351.098 1228.27C363.632 1235.6 386.965 1249.47 403.098 1259.2C437.232 1279.47 433.898 1277.6 448.032 1285.87C454.165 1289.33 461.232 1293.6 463.765 1295.33C470.698 1299.73 514.298 1325.6 519.098 1328.13C521.232 1329.33 528.032 1333.33 534.165 1337.07C540.298 1340.93 545.498 1344 545.898 1344C546.165 1344 551.232 1347.07 557.098 1350.67C562.965 1354.4 568.298 1357.33 568.965 1357.33C569.632 1357.33 570.832 1358.27 571.765 1359.33C574.298 1362.4 577.098 1361.73 584.698 1356.67C588.565 1354.13 591.898 1352 592.165 1352C592.698 1352 610.565 1341.73 615.765 1338.53C617.632 1337.33 626.565 1332 635.765 1326.67C644.965 1321.33 659.632 1312.67 668.432 1307.33C677.232 1302.13 691.098 1294 699.098 1289.33C707.232 1284.67 719.498 1277.47 726.432 1273.33C738.165 1266.27 785.232 1238.4 809.765 1224C815.632 1220.53 829.098 1212.67 839.765 1206.4C850.432 1200.13 866.565 1190.67 875.765 1185.2C884.965 1179.87 893.632 1174.67 895.232 1173.87C896.832 1173.07 909.632 1165.47 923.898 1156.93C938.165 1148.53 951.898 1140.4 954.432 1139.07C956.965 1137.6 968.698 1130.67 980.432 1123.73C992.165 1116.8 1004.3 1109.6 1007.36 1107.87C1010.3 1106.13 1017.9 1101.73 1024.03 1098.13C1030.03 1094.53 1045.36 1085.47 1057.76 1078.13C1070.3 1070.8 1083.1 1063.33 1086.43 1061.47C1089.76 1059.73 1093.9 1057.2 1095.76 1056C1097.63 1054.67 1101.23 1052.4 1103.76 1051.07C1114.7 1044.8 1145.9 1026.27 1147.5 1025.07C1148.7 1024 1149.1 954.8 1148.83 684.267L1148.43 344.8L1142.43 341.2C1139.1 339.2 1133.23 335.6 1129.36 333.467C1121.36 328.667 1122.96 328.267 1103.1 340C1086.83 349.6 975.498 415.867 949.765 431.333C937.365 438.8 921.098 448.4 913.765 452.667C906.432 456.933 898.832 461.467 896.832 462.8C893.632 465.067 876.032 475.733 869.765 479.2C868.298 480 862.165 483.733 856.032 487.333C827.898 504.133 823.365 506.667 820.698 506.667C818.032 506.667 804.698 499.467 793.765 492.267C791.632 490.8 783.232 485.733 775.232 481.2C767.232 476.533 758.165 471.2 755.098 469.333C752.165 467.467 745.098 463.333 739.632 460.133C734.165 456.933 726.165 452.133 721.765 449.333C714.165 444.667 674.432 420.933 665.765 416C661.365 413.467 638.698 400 620.432 388.933C586.565 368.533 577.498 363.467 575.365 363.733C573.365 363.867 545.098 380 510.698 400.8C505.365 404 500.832 406.667 500.565 406.667C500.298 406.667 490.165 412.533 478.165 419.733C466.298 426.933 451.898 435.467 446.432 438.8C440.965 442 434.832 445.467 432.965 446.667C431.098 447.733 423.632 452.133 416.298 456.4C409.098 460.667 400.965 465.467 398.432 466.933C382.832 476.267 372.832 482.267 365.765 486.4C361.365 488.933 356.032 492 353.765 493.333C332.032 506.133 325.632 510 316.165 516L305.098 522.933V682.667V842.4L311.365 847.067C314.965 849.6 319.765 852.8 322.298 854.133C328.032 857.333 328.298 857.6 345.098 868.133C367.098 882 464.165 942.267 480.432 952C488.565 956.933 504.432 966.8 515.765 974C527.098 981.2 538.565 988.267 541.098 989.733C543.632 991.2 552.432 996.667 560.698 1001.73L575.632 1010.93L585.365 1004.93C612.032 988.667 630.298 977.333 693.098 938.267C697.898 935.333 705.632 930.533 710.432 927.6C721.898 920.533 726.432 917.733 739.098 909.733C744.965 906.133 760.298 896.533 773.098 888.667C785.898 880.8 799.498 872.4 803.098 870C806.832 867.733 816.965 861.333 825.765 856C834.565 850.667 844.032 844.8 846.832 842.933L851.765 839.6V793.867V748L858.832 743.467C872.432 734.667 937.898 694.8 940.165 694C942.298 693.067 942.432 698.933 942.432 797.733V902.533L938.832 905.067C934.432 908.133 905.898 925.6 881.765 940C872.298 945.6 859.365 953.467 853.098 957.333C846.832 961.2 838.432 966.267 834.432 968.667C830.432 971.067 822.032 976.133 815.765 980C809.498 983.867 799.632 990 793.765 993.467C783.765 999.333 771.765 1006.53 732.432 1030.67C723.632 1036 710.698 1043.73 703.765 1048C664.965 1071.2 594.965 1113.73 593.765 1114.67C590.698 1117.2 575.365 1125.33 573.765 1125.33C572.032 1125.33 547.765 1111.6 540.832 1106.53C537.498 1104.27 534.832 1102.67 522.832 1095.87C520.032 1094.27 516.832 1092.27 515.765 1091.47C514.698 1090.53 511.098 1088.27 507.765 1086.4C504.432 1084.53 474.165 1066.4 440.432 1046C406.698 1025.6 375.765 1007.07 371.765 1004.67C356.965 996 298.832 960.8 292.165 956.533C288.432 954 284.832 952 284.165 952C283.632 952 280.032 950 276.298 947.467C272.565 944.933 263.632 939.333 256.298 934.933C249.098 930.533 234.432 921.733 223.765 915.333C213.098 908.933 204.032 903.067 203.498 902.133C202.965 901.333 202.432 803.467 202.432 684.533C202.432 480.4 202.565 468.267 204.832 466.4C206.032 465.333 210.698 462.267 215.098 459.733C227.232 452.533 293.632 413.2 319.098 398C331.632 390.533 353.498 377.6 367.765 369.067C382.032 360.667 410.032 344.133 429.765 332.4C449.632 320.667 482.298 301.333 502.432 289.333C522.565 277.467 546.965 262.933 556.698 257.2C566.432 251.333 574.698 246.667 575.098 246.667C575.498 246.667 585.898 252.8 598.165 260.133C610.432 267.6 623.765 275.6 627.765 278C640.032 284.933 700.965 321.333 713.098 328.667C722.565 334.533 780.032 368.667 821.765 393.333C839.498 403.867 837.498 403.467 846.165 397.6C850.298 394.8 866.698 383.867 882.432 373.2C898.165 362.667 923.098 345.867 937.765 335.867C952.432 325.867 974.432 311.067 986.832 302.8L1009.1 287.733V274.133V260.533L996.165 252.4C988.965 248 973.498 238.667 961.765 231.733C950.032 224.8 935.365 216 929.232 212.133C923.098 208.267 916.165 204 913.898 202.667C907.765 199.2 882.965 184.267 818.432 145.333C786.565 126 758.698 109.2 756.432 108C754.298 106.667 741.365 98.8 727.765 90.6667C714.165 82.4 699.898 73.7333 696.165 71.4667C692.298 69.2 673.632 58 654.832 46.6667C635.898 35.3333 619.365 25.3333 618.165 24.6667C616.965 23.8667 607.232 18.1333 596.698 11.6C586.165 5.19999 576.698 -1.40249e-05 575.632 -1.40249e-05C574.565 -1.40249e-05 560.032 8.39999 543.098 18.6667Z" fill="url(#paint0_linear_3_3)"/>
<defs>
<linearGradient id="paint0_linear_3_3" x1="210" y1="915.5" x2="801.5" y2="260" gradientUnits="userSpaceOnUse">
<stop stop-color="#B823F3"/>
<stop offset="1" stop-color="#4514C6"/>
</linearGradient>
</defs>
</svg>
